<?xml version="1.0" standalone="no"?><!DOCTYPE svg PUBLIC "-//W3C//DTD SVG 1.1//EN" "http://www.w3.org/Graphics/SVG/1.1/DTD/svg11.dtd"><svg t="1694252792017" class="icon" viewBox="0 0 1024 1024" version="1.1" xmlns="http://www.w3.org/2000/svg" p-id="39350" xmlns:xlink="http://www.w3.org/1999/xlink" width="32" height="32"><path d="M812.645314 49.830919c0 0-114.799606 103.980189-105.97052 133.506666 8.831132 29.523407 30.27656 71.889307 41.630143 71.889307 11.355629 0 56.770981-1.283226 65.599044-65.469084C822.739207 125.56888 812.645314 49.830919 812.645314 49.830919z" fill="#6b6b6b" p-id="39351"></path><path d="M714.24419 321.984319c0 0 1.261737-47.502897 79.478146-52.634778 78.216409-5.136997 109.75266-14.122649 123.631762-35.942607 13.875009-21.829168-84.526115 112.963795-117.324102 127.086443C767.229962 374.61398 705.415105 368.195803 714.24419 321.984319z" fill="#6b6b6b" p-id="39352"></path><path d="M661.260465 422.113807c0 0 6.309706-34.660404 69.384253-32.093952 63.078641 2.565429 123.631762-12.8384 129.941468-26.961048 6.305613-14.122649-85.785805 115.538433-123.633808 132.227534-37.845956 16.688077-61.812811 20.537755-70.647013 8.985652C657.475256 492.719888 637.290541 449.070762 661.260465 422.113807z" fill="#6b6b6b" p-id="39353"></path><path d="M599.444585 562.03865c0 0 7.569396-34.658358 58.030671-35.942607 50.461275-1.283226 84.522022 5.133927 119.846552-21.824051 35.322483-26.956955-3.784186 35.9467-34.06177 65.469084-30.27656 29.528524-36.586267 60.338227-73.172533 61.620429-36.582173 1.283226-78.213339 19.254529-80.737836-1.283226-2.523473-20.537755-2.523473-55.204299 5.045923-62.903655C601.970104 559.472198 599.444585 562.03865 599.444585 562.03865z" fill="#6b6b6b" p-id="39354"></path><path d="M550.245046 686.564781c10.3006-8.738012 35.32146-17.971303 63.078641-16.688077 27.752064 1.283226 102.18224-5.136997 117.320009-26.956955 15.138792-21.829168-37.848003 52.631708-68.124564 82.154092-30.27656 29.526477-70.643943 64.186881-105.966427 44.932352C521.228175 750.751662 527.537881 705.819311 550.245046 686.564781z" fill="#6b6b6b" p-id="39355"></path><path d="M630.982882 81.924871c0 0 21.446451 114.247021 60.553121 143.775544 39.107693 29.526477 12.617365 80.879052 1.25969 88.577385-11.350512 7.706519-69.382207 26.961048-90.826612-30.810726C580.52263 225.700415 596.920088 111.448278 630.982882 81.924871z" fill="#6b6b6b" p-id="39356"></path><path d="M570.427714 234.689137c0 0 8.834202 147.627269 70.647013 160.463622 61.814858 12.8384-29.014824 32.095999-29.014824 52.634778 0 20.537755-75.693959 16.688077-79.478146-43.646056C528.797571 343.804277 530.061354 278.335193 570.427714 234.689137z" fill="#6b6b6b" p-id="39357"></path><path d="M501.044484 374.61398c0 0 74.43427 128.374786 80.737836 151.48104 6.309706 23.108301 16.403598 33.377178-2.51938 42.36283-18.925025 8.985652-70.64906 30.810726-85.787852 5.132904C478.336296 547.921117 453.104635 460.625936 501.044484 374.61398z" fill="#6b6b6b" p-id="39358"></path><path d="M434.181657 504.271992c0 0 98.401124 134.792962 97.141434 152.764266-1.261737 17.971303-8.834202 65.469084-37.848003 69.323878-29.014824 3.853771-74.432223 24.391527-73.170486-44.932352C421.567361 612.107999 437.965843 553.052998 434.181657 504.271992z" fill="#6b6b6b" p-id="39359"></path><path d="M468.24445 743.048213c0 0 52.983725 32.092929 61.816904 29.523407 8.831132-2.565429-97.139387 168.170141-97.139387 168.170141l-32.801057-3.848655C400.119887 936.893106 466.982714 795.679921 468.24445 743.048213z" fill="#6b6b6b" p-id="39360"></path><path d="M230.303246 252.308423c0 0-25.576515 107.307981-8.788154 120.838136 16.788361 13.533224 45.965891 29.348422 52.557006 24.708751 6.593162-4.63967 32.450063-23.959691 12.225439-64.834634C266.073938 292.145733 230.303246 252.308423 230.303246 252.308423z" fill="#6b6b6b" p-id="39361"></path><path d="M280.661168 450.536136c0 0-18.024515-28.088732 25.351388-63.055105 43.376926-34.970466 58.135048-53.080939 57.57223-71.427796-0.559748-18.343787-4.451382 100.148931-17.916045 121.761158C332.209194 459.425597 293.78814 480.974379 280.661168 450.536136z" fill="#6b6b6b" p-id="39362"></path><path d="M289.451368 530.332531c0 0-10.029424-22.704095 27.602661-47.009663 37.630039-24.302499 66.699098-58.007135 64.785515-68.783573-1.915629-10.776438-4.168949 102.148471-19.550265 127.314641-15.379269 25.166169-27.773554 37.202297-37.461193 34.109866C315.136354 572.866253 286.180881 555.782156 289.451368 530.332531z" fill="#6b6b6b" p-id="39363"></path><path d="M308.828694 636.839263c0 0-9.29776-23.215748 19.48989-44.598754 28.786627-21.381983 51.095725-31.581276 60.954257-61.677734 9.857509-30.093389 11.995195 22.413476 6.083555 51.936883-5.915733 29.519314 2.588965 49.983391-18.141172 65.690118-20.730137 15.708773-37.802978 43.166125-47.37703 32.272008-9.577123-10.892071-23.263843-31.011294-21.911032-38.578644C309.278949 634.316813 308.828694 636.839263 308.828694 636.839263z" fill="#6b6b6b" p-id="39364"></path><path d="M329.442174 729.247906c2.530636-9.28548 13.410428-24.879644 30.026874-35.485189 16.617469-10.603499 57.292867-44.769646 57.459666-63.629179 0.168846-18.860557-1.187035 46.033429-7.098675 75.556836-5.915733 29.519314-15.660678 66.148559-43.771923 69.415976C337.946872 778.370697 323.863109 749.711983 329.442174 729.247906z" fill="#6b6b6b" p-id="39365"></path><path d="M137.52212 345.226672c0 0 57.57223 57.557904 91.934852 58.706053 34.362622 1.144056 39.262212 41.788755 35.71441 50.903344-3.549849 9.113565-29.631878 44.025703-64.896032 19.257599C165.012218 449.331705 129.409348 376.298342 137.52212 345.226672z" fill="#6b6b6b" p-id="39366"></path><path d="M162.702616 458.673467c0 0 63.425541 82.0886 104.381325 64.259536 40.954761-17.823947-4.167926 30.495548 3.944845 42.421158 8.108678 11.927657-37.350676 40.644699-63.375399 7.166213C181.629687 539.043936 156.50445 500.519528 162.702616 458.673467z" fill="#6b6b6b" p-id="39367"></path><path d="M177.684842 568.276724c0 0 93.90574 44.087101 106.693997 54.917774 12.788258 10.835789 22.700001 12.668531 15.264659 25.62768-7.435343 12.951987-28.841885 46.774303-47.768957 38.059827C232.9444 678.1706 183.822632 637.812427 177.684842 568.276724z" fill="#6b6b6b" p-id="39368"></path><path d="M190.07708 670.88773c0 0 110.355387 38.007639 116.718305 48.955992 6.365988 10.94733 20.730137 41.617863 5.411243 55.721069-15.32708 14.098089-33.576723 44.593638-60.223616 3.841491C225.341235 738.643903 211.536834 697.658444 190.07708 670.88773z" fill="#6b6b6b" p-id="39369"></path><path d="M304.147068 795.567357c0 0 43.432185-3.036149 47.543829-8.137331 4.112668-5.101181 10.024308 137.348158 10.024308 137.348158l-20.558222 11.17962C341.158007 935.956781 324.201823 826.641073 304.147068 795.567357z" fill="#6b6b6b" p-id="39370"></path></svg>