<?xml version="1.0" standalone="no"?><!DOCTYPE svg PUBLIC "-//W3C//DTD SVG 1.1//EN" "http://www.w3.org/Graphics/SVG/1.1/DTD/svg11.dtd"><svg t="1694252918054" class="icon" viewBox="0 0 1024 1024" version="1.1" xmlns="http://www.w3.org/2000/svg" p-id="41645" xmlns:xlink="http://www.w3.org/1999/xlink" width="32" height="32"><path d="M667.733333 469.333333H356.266667c-29.866667 0-53.333333-23.466667-53.333334-51.2v-8.533333l36.266667-234.666667C341.333333 147.2 364.8 128 392.533333 128h241.066667c27.733333 0 49.066667 19.2 53.333333 44.8l36.266667 234.666667c4.266667 29.866667-14.933333 55.466667-44.8 59.733333-4.266667 2.133333-6.4 2.133333-10.666667 2.133333z m-10.666666-51.2zM369.066667 405.333333h288L622.933333 192H401.066667l-32 213.333333zM411.733333 896H100.266667c-29.866667 0-53.333333-23.466667-53.333334-51.2v-8.533333l36.266667-234.666667C85.333333 573.866667 108.8 554.666667 136.533333 554.666667h241.066667c27.733333 0 49.066667 19.2 53.333333 44.8l36.266667 234.666666c4.266667 29.866667-14.933333 55.466667-44.8 61.866667h-10.666667z m-10.666666-51.2zM110.933333 832h288l-32-213.333333H145.066667L110.933333 832zM923.733333 896H612.266667c-14.933333 0-29.866667-6.4-40.533334-19.2-10.666667-10.666667-14.933333-27.733333-12.8-42.666667l36.266667-234.666666c4.266667-25.6 25.6-44.8 53.333333-44.8h241.066667c27.733333 0 49.066667 19.2 53.333333 44.8l36.266667 234.666666c2.133333 14.933333-2.133333 32-12.8 42.666667-10.666667 12.8-25.6 19.2-42.666667 19.2z m-10.666666-51.2zM625.066667 832h288l-32-213.333333H657.066667l-32 213.333333z" fill="#ffffff" p-id="41646"></path></svg>