<?xml version="1.0" standalone="no"?><!DOCTYPE svg PUBLIC "-//W3C//DTD SVG 1.1//EN" "http://www.w3.org/Graphics/SVG/1.1/DTD/svg11.dtd"><svg t="1694252034203" class="icon" viewBox="0 0 1024 1024" version="1.1" xmlns="http://www.w3.org/2000/svg" p-id="26888" id="mx_n_1694252034204" xmlns:xlink="http://www.w3.org/1999/xlink" width="200" height="200"><path d="M516.51072 223.21664m-49.57184 0a49.57184 49.57184 0 1 0 99.14368 0 49.57184 49.57184 0 1 0-99.14368 0Z" p-id="26889" fill="#6b6b6b"></path><path d="M593.93024 847.5648m-36.0704 0a36.0704 36.0704 0 1 0 72.1408 0 36.0704 36.0704 0 1 0-72.1408 0Z" p-id="26890" fill="#6b6b6b"></path><path d="M781.15328 726.50752a42.496 42.496 0 1 0 0.00512 84.99712 42.496 42.496 0 0 0-0.00512-84.99712z m0 56.89344a14.40768 14.40768 0 1 1 0.00512-28.81024 14.40768 14.40768 0 0 1-0.00512 28.81024z" p-id="26891" fill="#6b6b6b"></path><path d="M269.61408 971.80672c-69.05856 0-132.96128-25.94304-175.31392-71.18336-42.752-45.66528-56.33536-103.69536-36.33664-155.2128 38.93248-100.29568 273.024-371.23584 275.38432-373.9648l1.29024-1.48992V103.6288h-30.78656c-17.59232 0-31.8976-10.8032-31.8976-24.07936s14.30528-24.07936 31.8976-24.07936h62.68416c17.5872 0 31.8976 10.79808 31.8976 24.07936v297.54368c0 4.69504-1.82784 9.2672-5.29408 13.21984-0.75264 0.86016-89.3952 104.59136-154.68032 188.40576l-5.38112 6.912 8.61696 1.55648c17.10592 3.08736 32.81408 7.70048 49.43872 14.5152l0.60416 0.25088 14.60224 2.17088 1.6896-3.5328c17.95072-37.5808 56.36096-61.85984 97.84832-61.85984 44.99456 0 84.65408 27.14624 101.02784 69.15584l1.80736 4.62336 6.48704-2.03776c1.33632-0.39936 2.66752-0.79872 3.92704-1.27488 29.16864-13.5424 62.30528-26.60352 122.15808-26.60352 66.01216 0 100.36224 16.27648 130.66752 30.63296 14.40768 6.82496 28.01152 13.27104 44.83072 17.5616l14.47424 3.69664-8.91904-11.98592c-74.6496-100.29568-182.06208-231.36256-182.75328-232.16128-3.47648-3.968-5.30432-8.54016-5.30432-13.23008V79.55456c0-13.28128 14.30528-24.07936 31.89248-24.07936h66.3552c17.59744 0 31.8976 10.79808 31.8976 24.07936 0 13.27616-14.30528 24.07936-31.8976 24.07936h-34.44736v266.32192l1.29024 1.48992c37.24288 43.02336 234.01984 281.08288 270.08 373.9648 19.99872 51.51744 6.42048 109.54752-36.33664 155.2128-42.35264 45.24032-106.25024 71.18336-175.31392 71.18336H269.61408z m-72.52992-338.49344c-41.07776 55.9616-67.28192 98.18112-77.8752 125.47584-14.62272 37.66784-4.46976 80.33792 27.17184 114.14528 30.17728 32.2304 75.09504 50.7136 123.22816 50.7136h488.18688c48.14336 0 93.06112-18.4832 123.22816-50.7136 31.6416-33.80224 41.79456-76.47232 27.17696-114.14528-6.86592-17.68448-20.38784-41.8304-40.20736-71.77728l-1.55136-2.33984-2.79552-0.03584c-62.61248-0.83968-95.97952-16.65536-125.41952-30.60736-27.47392-13.01504-49.16224-23.29088-96.95232-23.29088-47.81056 0-69.49888 10.27584-96.96256 23.29088-1.60256 0.65024-12.02176 3.23072-19.62496 5.11488l-11.38176 2.83648-0.57856 3.40992a108.08832 108.08832 0 0 1-106.86464 90.33728c-55.12192 0-101.43232-41.2672-107.71968-95.98464l-0.42496-3.66592-3.57888-0.8704c-12.3648-3.03616-18.2784-4.76672-21.08416-5.69344l0.01024-0.128-3.39968-1.53088c-19.70688-8.8576-38.82496-15.09376-68.03968-16.6912l-2.86208-0.15872-1.67936 2.30912z m208.78848-45.17376c-32.57856 0-59.0848 26.51136-59.0848 59.08992 0 32.57344 26.50624 59.07968 59.0848 59.07968 32.57856 0 59.0848-26.50624 59.0848-59.07968 0.00512-32.57856-26.50624-59.08992-59.0848-59.08992z" p-id="26892" fill="#6b6b6b"></path></svg>