<?xml version="1.0" standalone="no"?><!DOCTYPE svg PUBLIC "-//W3C//DTD SVG 1.1//EN" "http://www.w3.org/Graphics/SVG/1.1/DTD/svg11.dtd"><svg t="1694415465330" class="icon" viewBox="0 0 1024 1024" version="1.1" xmlns="http://www.w3.org/2000/svg" p-id="26278" xmlns:xlink="http://www.w3.org/1999/xlink" width="32" height="32"><path d="M909.312 185.856h-48.128l-43.008-47.616h-0.512c-1.024-1.024-3.072-1.536-4.608-2.048-1.536-0.512-2.56-1.536-4.608-2.048h-67.584L686.08 44.544c-0.512-0.512-1.024-0.512-1.024-1.024-1.024-1.536-2.56-2.048-3.584-2.56a12.6464 12.6464 0 0 0-4.608-2.048c-0.512 0-1.024-0.512-1.536-0.512h-32.768c-1.536 0-2.048 1.024-3.584 1.536-1.024 0.512-2.56 0-3.584 0.512l-57.856 38.912H493.056c-3.584 0-6.656 1.536-9.216 3.584l-16.384 16.896-50.688-40.96c-1.536-1.024-3.072-1.024-4.096-1.536-1.536-0.512-2.56-1.536-4.096-1.536H349.696c-0.512 0-1.024 0.512-1.536 0.512-1.536 0-3.072 1.024-4.096 1.536-1.536 1.024-2.56 2.048-4.096 3.072 0 0.512-0.512 0.512-1.024 1.024L268.8 171.52l-18.432-10.752c-1.024-0.512-2.048 0-3.584-0.512-1.024-0.512-2.048-1.536-3.072-1.536H185.344c-1.536 0-2.56 1.024-4.096 1.536-1.536 1.024-3.584 1.024-4.608 2.048L103.936 236.544c-1.536 1.024-1.024 2.56-2.048 4.096-0.512 1.536-2.048 3.072-2.048 4.608v39.936c0 7.168 5.632 12.8 12.8 12.8s12.8-5.632 12.8-12.8V250.88l65.024-66.56h49.152l25.6 15.36h0.512c2.048 1.024 4.096 2.048 6.656 2.048 2.048 0 4.096-0.512 6.144-1.536l1.536-1.536c1.536-0.512 2.56-1.536 3.584-2.56l73.216-114.688h47.104l111.616 89.6v27.648c0 7.168 5.632 12.8 12.8 12.8s12.8-5.632 12.8-12.8v-33.28c0-0.512-0.512-0.512-0.512-0.512 0-1.536-1.024-3.072-2.048-4.608-0.512-1.536-1.024-3.072-2.56-4.096 0 0 0-0.512-0.512-0.512l-48.128-39.936 10.752-10.752h83.456c2.56 0 5.12-0.512 7.168-2.048l57.856-38.912h21.504L723.456 153.6l1.536 1.536 1.536 1.536c2.56 2.048 5.12 3.072 8.192 3.072h68.608l43.008 47.616h0.512c2.56 2.56 5.632 4.096 9.216 4.096h40.96v73.728c0 7.168 5.632 12.8 12.8 12.8s12.8-5.632 12.8-12.8V198.656c-0.512-6.656-6.144-12.8-13.312-12.8z" fill="#838282" p-id="26279"></path><path d="M952.32 396.8c18.432 0 33.28-14.848 33.28-33.28V305.664c0-18.432-14.848-33.28-33.28-33.28H72.704c-18.432 0-33.28 14.848-33.28 33.28V363.52c0 18.432 14.848 33.28 33.28 33.28h1.536l93.696 290.304H143.36c-14.848 0-26.624 11.776-26.624 26.624v160.768H64v-29.696c0-7.168-5.632-12.8-12.8-12.8s-12.8 5.632-12.8 12.8v86.016c0 7.168 5.632 12.8 12.8 12.8s12.8-5.632 12.8-12.8v-30.208h129.024c6.144 48.128 47.104 85.504 96.768 85.504s90.624-37.376 96.768-85.504h46.592c3.072 0 5.632-1.536 8.192-3.072 0.512-0.512 1.024-1.024 1.536-2.048 0.512-1.024 1.536-1.024 2.048-2.048l21.504-45.056h94.208l21.504 45.056c0.512 1.024 1.536 1.536 2.048 2.048 0.512 0.512 1.024 1.024 1.536 2.048 2.56 2.048 5.12 3.072 8.192 3.072h44.544c6.144 48.128 47.104 85.504 96.768 85.504 49.664 0 90.624-37.376 96.768-85.504h127.488v30.208c0 7.168 5.632 12.8 12.8 12.8s12.8-5.632 12.8-12.8V844.8c0-7.168-5.632-12.8-12.8-12.8s-12.8 5.632-12.8 12.8v30.208h-50.688v-160.768c0-14.848-11.776-26.624-26.624-26.624h-26.112l94.208-290.304h2.048zM65.536 363.52V305.664c0-4.096 3.584-7.68 7.68-7.68H952.32c4.096 0 7.68 3.584 7.68 7.68V363.52c0 4.096-3.584 7.68-7.68 7.68H72.704c-4.096 0-7.168-3.584-7.168-7.68z m224.256 596.48a72.6528 72.6528 0 1 1 0-145.408c35.84 0 65.024 25.6 71.168 59.904h-49.664c-7.168 0-12.8 5.632-12.8 12.8s5.632 12.8 12.8 12.8h50.176c-6.656 34.304-36.352 59.904-71.68 59.904z m444.928 0c-35.84 0-65.024-25.6-71.168-59.904h52.224c7.168 0 12.8-5.632 12.8-12.8s-5.632-12.8-12.8-12.8h-52.224c6.144-33.792 35.84-59.904 71.168-59.904 39.936 0 72.704 32.256 72.704 72.704 0 40.448-32.256 72.704-72.704 72.704z m148.48-246.272v160.768h-51.2a97.792 97.792 0 0 0-96.768-85.504c-49.664 0-90.624 37.376-96.768 85.504h-36.352l-21.504-45.056-1.536-1.536c-1.024-1.536-2.048-2.048-3.584-3.072a12.6464 12.6464 0 0 0-4.608-2.048c-0.512 0-1.024-1.024-2.048-1.024H458.24c-1.024 0-1.536 0.512-2.048 1.024-1.536 0.512-3.072 1.024-4.096 1.536-1.536 1.024-2.56 1.536-3.584 3.072-0.512 0.512-1.536 1.024-1.536 1.536l-21.504 45.056h-38.912c-6.144-48.128-47.104-85.504-96.768-85.504s-90.624 37.376-96.768 85.504h-50.688l1.024-161.792 739.84 1.536z m-54.272-26.624H195.072L101.376 396.8h821.76l-94.208 290.304z" fill="#838282" p-id="26280"></path></svg>