<?xml version="1.0" standalone="no"?><!DOCTYPE svg PUBLIC "-//W3C//DTD SVG 1.1//EN" "http://www.w3.org/Graphics/SVG/1.1/DTD/svg11.dtd"><svg t="1694415132328" class="icon" viewBox="0 0 1024 1024" version="1.1" xmlns="http://www.w3.org/2000/svg" p-id="13202" xmlns:xlink="http://www.w3.org/1999/xlink" width="32" height="32"><path d="M571.739593 895.63647l3.071965-2.661619c-1.076518 0.830925-2.158153 1.650593-3.248997 2.456958L571.739593 895.63647z" fill="#ffffff" p-id="13203"></path><path d="M940.54631 345.258395l-1.084705 0.955768c-4.012384-12.286838-8.735965-24.540929-14.160511-36.69576l0.995677-0.876973c-2.457981-5.467525-5.052063-10.915607-7.794523-16.334014l-0.960885 0.856507c-14.712073-29.258371-33.549094-57.725726-56.496735-84.362386-34.007535-39.473013-73.316819-70.63371-114.620527-92.856851l0.473791-0.422625c-3.070942-1.64036-6.15314-3.228531-9.244548-4.770653l-0.450255 0.396019c-12.344143-6.202259-24.840758-11.617595-37.406958-16.21531l0.330528-0.291642c-26.727735-9.67536-53.747111-15.654538-80.237439-17.830087-1.098008-0.095167-2.196015-0.194428-3.290953-0.277316-0.265036-0.01842-0.529049-0.034792-0.794086-0.052189-61.160965-4.428869-119.321596 11.653411-164.217109 50.331315-1.50119 1.293459-2.971681 2.611477-4.426823 3.941775 3.474125-2.730181 7.02295-5.329379 10.637268-7.806803-1.603521 1.298576-3.204995 2.600221-4.776793 3.954055L141.780097 396.566968l0.581238 0.674359c3.53757-3.536546 7.206122-6.973832 11.040451-10.277064 66.286706-57.106626 161.483858-64.968687 252.571413-30.239721L688.573531 104.818277c12.562107 4.608971 25.055652 10.015098 37.393655 16.22759L442.909435 373.273449c3.982708 2.060939 7.945973 4.213975 11.891841 6.439666l280.452413-253.81473c41.169655 22.207791 80.347956 53.30095 114.25623 92.65833 23.042809 26.747177 41.940205 55.339376 56.67786 84.724637L622.578468 559.870264c2.178619 4.539386 4.261047 9.095145 6.241145 13.665231l285.08492-253.977435c5.41636 12.163017 10.128685 24.427342 14.131859 36.722366L642.628106 610.604762c31.584346 100.844779 15.521508 203.142653-50.16247 267.073708L882.979196 625.969705C957.470771 561.79408 975.866746 452.310549 940.54631 345.258395z" fill="#ffffff" p-id="13204"></path><path d="M548.444027 478.044654c-118.730125-137.814786-302.050314-174.521802-409.456532-81.988316-107.407242 92.533486-98.227162 279.267425 20.502963 417.081187 118.730125 137.813762 302.050314 174.521802 409.456532 81.988316C676.353209 802.592354 667.174152 615.858416 548.444027 478.044654zM541.459962 863.222223c-93.674473 80.703043-253.556856 48.688909-357.106234-71.505567C80.804351 671.52218 72.798003 508.662998 166.472476 427.959955s253.555833-48.688909 357.106234 71.505567S635.134435 782.51918 541.459962 863.222223z" fill="#ffffff" p-id="13205"></path><path d="M501.29724 518.661723c-89.946568-104.404862-228.825592-132.213207-310.193785-62.11264-81.369216 70.100568-74.414827 211.565487 15.531741 315.970348s228.825592 132.213207 310.193785 62.11264S591.244832 623.066585 501.29724 518.661723zM485.001089 797.686624c-65.466014 56.400544-177.202864 34.026978-249.571079-49.973158s-77.962629-197.817368-12.496615-254.218936c65.466014-56.400544 177.202864-34.026978 249.571079 49.973158C544.871665 627.468848 550.467103 741.28608 485.001089 797.686624z" fill="#ffffff" p-id="13206"></path><path d="M448.838472 563.857065c-57.920154-67.230194-147.348929-85.137029-199.745277-39.995923-52.396347 45.140083-47.918359 136.234801 10.001795 203.464995s147.348929 85.137029 199.745277 39.995923C511.236614 722.180953 506.758626 631.086236 448.838472 563.857065zM356.12079 648.091538c-1.076518 0.927115-2.913353 0.559748-4.103458-0.821715s-1.282203-3.252067-0.205685-4.180206 2.913353-0.559748 4.103458 0.821715C357.105211 645.292795 357.197308 647.164423 356.12079 648.091538z" fill="#ffffff" p-id="13207"></path></svg>