<?xml version="1.0" standalone="no"?><!DOCTYPE svg PUBLIC "-//W3C//DTD SVG 1.1//EN" "http://www.w3.org/Graphics/SVG/1.1/DTD/svg11.dtd"><svg t="1694415416035" class="icon" viewBox="0 0 1024 1024" version="1.1" xmlns="http://www.w3.org/2000/svg" p-id="24119" xmlns:xlink="http://www.w3.org/1999/xlink" width="32" height="32"><path d="M634.88 560.7424l10.0352-24.3712 11.4688 2.8672a307.2 307.2 0 0 1 15.9744 46.6944c3.4816 20.48 0 40.96 5.12 61.44a63.6928 63.6928 0 0 1-35.0208 74.752 299.6224 299.6224 0 0 0-100.9664 80.6912c-23.3472 32.3584-94.0032 19.0464-121.2416-16.9984-21.7088-28.672-26.2144-31.1296-70.8608-35.0208l52.6336 58.368c-48.7424 0-93.184 1.8432-120.832-43.8272-2.4576-4.096-4.5056-9.6256-8.3968-11.6736-58.1632-32.768-37.2736-92.7744-44.2368-140.6976-3.8912-26.624 23.3472-50.5856 49.7664-61.44v91.7504l8.3968 1.4336c1.2288-63.488 36.864-113.0496 63.8976-165.888 22.528-44.032 97.28-51.8144 143.36-24.3712l-19.2512 11.4688c39.5264 8.8064 80.896 18.8416 122.88 26.8288 30.5152 5.9392 40.96 21.9136 31.5392 51.4048a40.96 40.96 0 0 0 0 11.264z m-258.048 10.24a70.656 70.656 0 0 0 45.4656 72.704c46.2848 16.7936 78.4384 10.8544 103.8336-20.48a344.2688 344.2688 0 0 1-80.4864-8.8064 351.8464 351.8464 0 0 1-68.608-43.4176zM750.592 295.3216l-28.8768 33.9968 46.8992-9.4208c-4.5056 38.912 24.9856 53.248 51.4048 70.8608a51.6096 51.6096 0 0 1 14.1312 24.1664 305.152 305.152 0 0 1 8.3968 33.9968c14.5408 61.44 12.288 65.9456-52.0192 80.0768-13.7216 2.8672-27.2384 6.3488-40.96 9.4208v8.3968c12.4928-1.024 25.1904-1.024 37.6832-3.072s25.8048-6.144 40.96-9.6256c-10.8544 29.9008-57.5488 55.296-81.92 46.2848a25.1904 25.1904 0 0 1-12.0832-13.7216c-8.6016-20.48-14.336-43.008-24.1664-63.2832s-22.3232-37.6832 12.9024-50.176c-70.656 24.1664-124.5184-14.7456-182.0672-36.6592a26.2144 26.2144 0 0 1-12.288-7.168c-6.3488-10.6496-11.4688-22.1184-16.7936-33.1776a135.7824 135.7824 0 0 1 39.5264-10.8544 234.9056 234.9056 0 0 1 48.7424 11.8784l2.6624-7.7824c-5.9392-3.2768-11.8784-6.9632-18.2272-9.8304-28.4672-13.5168-32.768-34.6112-4.096-47.3088 47.104-20.48 95.232-51.4048 151.552-27.648a199.0656 199.0656 0 0 1 18.6368 10.6496zM444.416 332.3904l3.4816-45.6704a42.5984 42.5984 0 0 1 31.9488 40.96 57.344 57.344 0 0 1-1.2288 14.5408c-10.24 53.248 2.048 48.9472-56.32 46.4896a115.9168 115.9168 0 0 0-49.7664 10.24c-35.4304 15.7696-69.2224 35.2256-104.0384 52.0192s-52.4288 9.216-61.44-31.1296a63.2832 63.2832 0 0 0-16.1792-30.72c-22.3232-20.48-22.9376-32.768 1.2288-51.6096-15.5648-23.7568-11.6736-50.176 11.0592-78.4384a103.424 103.424 0 0 1 83.5584-22.528c48.5376-49.5616 89.7024-43.6224 122.88 18.432 12.288 23.7568 22.1184 48.9472 34.816 77.4144z m-61.44-27.0336h-7.3728l-86.8352 30.9248a49.5616 49.5616 0 0 0 62.6688 4.096c13.5168-7.5776 21.9136-23.3472 32.1536-35.0208z" fill="#ffffff" p-id="24120"></path></svg>