<?xml version="1.0" standalone="no"?><!DOCTYPE svg PUBLIC "-//W3C//DTD SVG 1.1//EN" "http://www.w3.org/Graphics/SVG/1.1/DTD/svg11.dtd"><svg t="1694415369022" class="icon" viewBox="0 0 1024 1024" version="1.1" xmlns="http://www.w3.org/2000/svg" p-id="22850" xmlns:xlink="http://www.w3.org/1999/xlink" width="32" height="32"><path d="M646.656 85.333333c-26.837333 0-158.677333 66.688-203.989333 66.688-11.178667 0-133.973333-8.874667-145.322667-5.376-38.357333 11.861333-147.669333 137.685333-165.333333 173.354667-13.184 26.496 16.469333 149.162667 4.010666 176-12.202667 26.154667-35.84 44.16-45.354666 73.344-12.8 39.509333 21.333333 150.186667 5.333333 206.677333-15.829333 56.32 22.314667 91.477333 80 102.656 18.688 3.669333 106.837333 51.968 153.344 51.968 69.12 0 134.656-49.962667 201.301333-64 19.370667-3.968 245.845333-29.312 265.386667-64 21.461333-38.144 69.973333-41.813333 85.333333-83.968 11.136-30.677333 10.453333-63.658667 6.613334-97.365333-3.84-33.792-13.482667-49.792-27.989334-78.634667-16.64-33.194667 2.005333-39.338667 18.688-65.322666 10.325333-16.213333-15.189333-89.002667-22.698666-100.010667-5.461333-8.192 10.197333-62.677333 9.386666-80-1.536-32.512-23.381333-43.861333-49.365333-54.698667-34.133333-14.293333-43.349333-27.989333-40.021333-62.634666C783.018667 105.813333 646.741333 85.333333 646.741333 85.333333z m-20.010667 93.354667s40.362667 11.477333 49.365334 14.634667c6.826667 23.168 9.472 51.029333 7.978666 69.333333-1.493333 16.64 19.84 70.698667 20.010667 88.021333 0.341333 40.96-37.973333 73.813333-24.021333 114.645334 12.373333 36.181333 18.517333 65.194667-25.301334 84.010666-15.829333 6.826667-70.357333 32.981333-91.989333 37.333334-33.024 6.485333-64.341333 21.674667-64 58.666666 0.128 20.181333-33.536 75.52-50.688 77.354667-13.184 1.493333-57.344-12.373333-69.333333-5.333333-40.021333 23.466667-107.349333 84.650667-155.989334 54.613333-15.658667-9.642667-24.490667-22.144-33.365333-35.968 3.541333-22.016-15.786667-142.848-11.946667-154.666667 1.792-5.674667 8.106667-13.994667 14.634667-22.656 7.68-10.325333 16.512-22.826667 24.021333-38.656 17.664-37.674667-1.024-166.528 0-172.032 1.28-1.664 91.136-111.786667 101.333334-113.322666 6.826667-0.981333 113.322667 5.333333 125.312 5.333333 55.338667 0 176.981333-58.496 184.021333-61.354667z m-78.634666 118.613333c-21.674667 0.512-51.669333 28.373333-61.354667 34.688-13.653333 9.002667-37.802667 11.690667-49.322667 22.698667-14.336 34.816 8.149333 61.44 10.666667 79.957333 3.669333 25.514667-18.346667 75.349333 25.344 77.354667 21.504 0.981333 33.322667-19.2 46.677333-32 12.970667-12.501333 73.472-33.493333 73.301334-46.677333 10.666667-20.48-2.005333-62.506667-11.989334-70.656-21.162667-17.322667 2.986667-52.010667-24.021333-64a24.405333 24.405333 0 0 0-9.301333-1.322667zM312.021333 512c-16.341333 0-21.205333 32.512-25.344 40.021333-4.522667 7.978667-46.848 29.013333-29.354666 50.645334 31.36 38.485333 79.018667 63.018667 85.333333 34.688 6.528-29.354667 52.010667-49.365333 38.656-70.698667C362.197333 535.68 341.845333 512 312.021333 512z" fill="#838282" p-id="22851"></path></svg>