<?xml version="1.0" standalone="no"?><!DOCTYPE svg PUBLIC "-//W3C//DTD SVG 1.1//EN" "http://www.w3.org/Graphics/SVG/1.1/DTD/svg11.dtd"><svg t="1694482582929" class="icon" viewBox="0 0 1024 1024" version="1.1" xmlns="http://www.w3.org/2000/svg" p-id="4370" width="32" height="32" xmlns:xlink="http://www.w3.org/1999/xlink"><path d="M596.650667 710.030222c0 1.536-0.398222 2.901333-0.455111 4.437333 12.231111-26.396444 19.399111-55.637333 19.399111-86.755556 0-113.436444-90.567111-205.368889-202.296889-205.368889-41.870222 0-80.497778 13.255111-112.753778 35.384889 14.108444-2.503111 28.387556-4.437333 43.235556-4.437333C483.441778 453.290667 596.650667 568.206222 596.650667 710.030222z" p-id="4371" fill="#509df6"></path><path d="M698.026667 607.061333c0 1.536-0.398222 2.901333-0.455111 4.437333 12.231111-26.396444 19.399111-55.637333 19.399111-86.755556 0-113.436444-90.567111-205.368889-202.296889-205.368889-41.870222 0-80.497778 13.255111-112.753778 35.384889 14.108444-2.503111 28.387556-4.437333 43.235556-4.437333C584.817778 350.378667 698.026667 465.294222 698.026667 607.061333z" p-id="4372" fill="#509df6"></path><path d="M503.352889 251.847111c8.021333-1.422222 16.440889-1.706667 24.689778-2.503111L547.783111 229.262222C532.081778 235.121778 517.006222 242.460444 503.352889 251.847111z" p-id="4373" fill="#509df6"></path><path d="M633.628444 218.282667l-34.417778 34.929778c86.414222 18.602667 156.387556 81.976889 185.514667 165.034667l30.435556-30.890667C799.857778 296.448 725.617778 226.417778 633.628444 218.282667z" p-id="4374" fill="#509df6"></path><path d="M813.511111 465.180444l-16.042667 16.270222c0.682667 7.566222 1.934222 14.961778 1.934222 22.698667 0 1.536-0.398222 2.901333-0.455111 4.437333C805.376 494.876444 810.154667 480.312889 813.511111 465.180444z" p-id="4375" fill="#509df6"></path><path d="M818.403556 421.831111c0-11.832889-1.365333-23.267556-3.242667-34.474667l-30.435556 30.890667c6.997333 19.968 10.808889 41.301333 12.743111 63.203556L813.511111 465.180444C816.583111 451.242667 818.403556 436.792889 818.403556 421.831111z" p-id="4376" fill="#509df6"></path><path d="M616.106667 216.462222c-24.120889 0-46.933333 4.835556-68.323556 12.8L527.985778 249.344C534.186667 248.718222 540.216889 247.409778 546.531556 247.409778c18.090667 0 35.669333 2.104889 52.679111 5.745778l34.417778-34.929778C627.768889 217.770667 622.08 216.462222 616.106667 216.462222z" p-id="4377" fill="#509df6"></path><path d="M604.728889 148.935111c8.078222-1.422222 16.440889-1.706667 24.689778-2.503111l19.797333-20.081778C633.457778 132.209778 618.439111 139.548444 604.728889 148.935111z" p-id="4378" fill="#509df6"></path><path d="M919.779556 318.919111c0-113.436444-90.567111-205.368889-202.296889-205.368889-16.042667 0-31.402667 2.503111-46.307556 6.144l29.809778 30.208-0.341333 0.341333c87.665778 18.887111 158.151111 83.911111 186.481778 168.789333l29.297778 29.752889C917.902222 338.944 919.779556 329.216 919.779556 318.919111z" p-id="4379" fill="#509df6"></path><path d="M914.887111 362.268444 898.844444 378.538667c0.682667 7.566222 1.934222 14.961778 1.934222 22.698667 0 1.536-0.398222 2.901333-0.455111 4.437333C906.752 391.964444 911.530667 377.400889 914.887111 362.268444z" p-id="4380" fill="#509df6"></path><path d="M916.423111 348.785778l-29.297778-29.752889c6.314667 18.887111 9.955556 38.912 11.719111 59.448889l16.042667-16.270222C915.797333 357.944889 915.740444 353.223111 916.423111 348.785778z" p-id="4381" fill="#509df6"></path><path d="M671.175111 119.694222c-7.509333 1.820444-14.848 3.982222-22.016 6.656l-19.797333 20.081778c6.200889-0.625778 12.174222-1.877333 18.545778-1.877333 18.090667 0 35.669333 2.104889 52.679111 5.745778l0.341333-0.341333L671.175111 119.694222z" p-id="4382" fill="#509df6"></path><path d="M1021.155556 233.130667c0-128.113778-102.627556-232.334222-228.807111-232.334222-71.452444 0-134.599111 33.962667-176.241778 86.300444l-0.796444-0.796444-488.96 496.355556 1.991111 2.048c-34.929778 40.789333-56.832 93.411556-56.832 151.552 0 128.113778 102.627556 232.277333 228.807111 232.277333 51.882667 0 99.271111-18.318222 137.671111-47.957333l1.365333 1.365333 14.336-14.563556c5.347556-4.949333 10.353778-10.012444 15.189333-15.416889l486.229333-493.568-2.048-2.104889C994.816 354.645333 1021.155556 297.358222 1021.155556 233.130667zM124.643556 736.369778c0-98.417778 78.848-178.460444 175.786667-178.460444s175.786667 80.042667 175.786667 178.460444c0 45.169778-17.180444 86.016-44.487111 117.475556l-15.530667 15.758222C385.137778 897.365333 344.917333 914.773333 300.373333 914.773333 203.491556 914.773333 124.643556 834.730667 124.643556 736.369778zM527.189333 756.849778c0.625778-6.883556 2.048-13.482667 2.048-20.536889 0-128.113778-102.627556-232.334222-228.807111-232.334222-8.192 0-15.928889 1.592889-23.893333 2.446222l223.573333-226.986667 152.746667-155.079111L651.946667 123.505778l11.491556-11.719111 0.398222 0.398222c32.142222-35.157333 77.596444-57.571556 128.455111-57.571556 96.938667 0 175.786667 80.042667 175.786667 178.460444 0 46.592-18.090667 88.689778-46.933333 120.490667l1.137778 1.137778L815.616 463.075556c0.398222-0.056889 0.796444-0.227556 1.251556-0.227556L527.189333 756.849778z" p-id="4383" fill="#509df6"></path></svg>