<?xml version="1.0" standalone="no"?><!DOCTYPE svg PUBLIC "-//W3C//DTD SVG 1.1//EN" "http://www.w3.org/Graphics/SVG/1.1/DTD/svg11.dtd"><svg t="1694252097841" class="icon" viewBox="0 0 1024 1024" version="1.1" xmlns="http://www.w3.org/2000/svg" p-id="28061" xmlns:xlink="http://www.w3.org/1999/xlink" width="200" height="200"><path d="M262.606108 595.220375c-91.924424 0-166.440751 74.51735-166.440751 166.440751 0 91.921353 74.51735 166.440751 166.440751 166.440751s166.440751-74.519398 166.440751-166.440751c0.001024-91.923401-74.516326-166.440751-166.440751-166.440751z m0 291.271826c-68.942294 0-124.831075-55.88878-124.831075-124.831075s55.88878-124.831075 124.831075-124.831075 124.831075 55.88878 124.831075 124.831075-55.887757 124.831075-124.831075 124.831075zM595.488633 595.220375c-91.924424 0-166.440751 74.51735-166.44075 166.440751 0 91.921353 74.51735 166.440751 166.44075 166.440751s166.440751-74.519398 166.440751-166.440751c0-91.923401-74.516326-166.440751-166.440751-166.440751z m0 291.271826c-68.942294 0-124.831075-55.88878-124.831075-124.831075s55.88878-124.831075 124.831075-124.831075 124.831075 55.88878 124.831075 124.831075-55.88878 124.831075-124.831075 124.831075zM761.929384 470.3893c68.942294 0 124.831075 55.88878 124.831075 124.831075 0 33.369447-13.282864 63.512631-34.613467 85.907051l29.422368 29.422368c28.85616-29.932264 46.801798-70.470955 46.801798-115.329419 0-91.924424-74.51735-166.440751-166.44075-166.44075-44.861536 0-85.397156 17.945638-115.329419 46.801798l29.422368 29.422369c22.393396-21.331627 52.537604-34.614491 85.906027-34.614492z" fill="#ffffff" p-id="28062"></path><path d="M429.047883 303.94855c-91.924424 0-166.440751 74.51735-166.440751 166.44075 0 91.921353 74.51735 166.440751 166.440751 166.440751s166.440751-74.519398 166.44075-166.440751c0-91.923401-74.51735-166.440751-166.44075-166.44075z m0 291.271825c-68.942294 0-124.831075-55.88878-124.831075-124.831075s55.88878-124.831075 124.831075-124.831075 124.831075 55.88878 124.831075 124.831075-55.88878 124.831075-124.831075 124.831075zM637.099333 137.507799c68.942294 0 124.831075 55.88878 124.831075 124.831075 0 34.471147-13.970915 65.68122-36.560897 88.269154l29.422368 29.422369c30.118611-30.118611 48.749228-71.731358 48.749228-117.691523 0-91.924424-74.51735-166.440751-166.44075-166.440751-45.961188 0-87.573936 18.631641-117.691523 48.749228l29.422369 29.422369c22.585886-22.591006 53.795959-36.561921 88.26813-36.561921z" fill="#ffffff" p-id="28063"></path><path d="M307.230102 356.998096L519.491769 144.738477l29.423393 29.422369-212.260643 212.260643zM459.340554 329.384933L671.600173 117.125314l29.423392 29.422369-212.260642 212.260642zM540.625786 388.333083L752.886429 176.073464l29.422368 29.423392-212.259619 212.259619zM514.288384 561.489497l210.974643-210.975667 29.423392 29.423393-210.974643 210.974643z" fill="#ffffff" p-id="28064"></path><path d="M484.341786 637.274417l162.252035-162.253059 29.423393 29.423392L513.764154 666.695762zM683.114787 849.946662l170.774857-170.773833 29.423393 29.422368-170.774857 170.773834zM634.487401 615.618219l170.773834-170.773834 29.423392 29.422369-170.773833 170.774857zM703.432768 690.170381l170.773833-170.773833 29.423392 29.422368-170.774857 170.773834z" fill="#ffffff" p-id="28065"></path></svg>